<?xml version="1.0" standalone="no"?>
<!DOCTYPE svg PUBLIC "-//W3C//DTD SVG 20010904//EN"
 "http://www.w3.org/TR/2001/REC-SVG-20010904/DTD/svg10.dtd">
<svg version="1.0" xmlns="http://www.w3.org/2000/svg"
 width="600.000000pt" height="600.000000pt" viewBox="0 0 600.000000 600.000000"
 preserveAspectRatio="xMidYMid meet">
<metadata>
Created by potrace 1.14, written by Peter Selinger 2001-2017
</metadata>
<g transform="translate(0.000000,600.000000) scale(0.100000,-0.100000)"
fill="#000000" stroke="none">
<path d="M3122 5130 c-21 -53 -99 -100 -164 -100 -18 0 -68 11 -111 25 -144
46 -216 32 -290 -59 -35 -42 -38 -43 -104 -48 -128 -9 -238 -92 -308 -232 -45
-88 -113 -158 -225 -231 -76 -49 -98 -59 -125 -56 -18 1 -18 0 -3 -9 10 -6 25
-7 40 -1 34 13 129 34 133 29 2 -2 -9 -24 -26 -49 -33 -52 -56 -141 -45 -182
3 -15 20 -42 36 -61 23 -26 30 -44 31 -77 0 -51 28 -130 47 -137 11 -3 11 1
-1 19 -15 23 -21 66 -17 119 1 21 3 19 16 -14 20 -55 70 -131 99 -150 34 -22
52 -21 32 2 -26 28 -20 34 6 8 13 -13 29 -25 35 -27 19 -6 23 -49 7 -56 -20
-7 -9 -23 15 -23 22 0 33 -42 27 -107 -3 -23 0 -40 4 -37 5 3 9 -18 9 -47 0
-78 9 -54 14 37 2 43 7 86 10 95 4 8 0 32 -9 52 -34 83 -7 208 47 215 36 4 75
-45 84 -106 9 -69 57 -185 94 -232 36 -45 51 -47 25 -3 -11 19 -4 13 24 -17
27 -30 39 -38 36 -25 -2 11 -6 38 -9 60 l-6 40 27 -45 c27 -47 64 -92 70 -87
2 2 -4 23 -12 47 -8 23 -15 72 -14 109 l1 66 19 -61 c10 -33 30 -71 44 -84
l26 -24 -16 37 c-9 23 -15 65 -14 114 l0 78 13 -42 c27 -86 87 -153 138 -153
22 0 21 1 -7 18 -40 25 -50 39 -68 92 -14 40 -14 45 0 48 9 2 19 -2 24 -10 7
-10 9 -9 9 5 0 9 -7 17 -16 17 -9 0 -12 5 -8 13 6 9 4 9 -8 -1 -13 -10 -17
-10 -21 2 -4 10 2 18 16 22 32 10 77 13 77 4 0 -4 11 -5 24 -3 20 4 23 1 21
-20 -2 -18 3 -27 16 -30 10 -3 19 -1 19 4 0 5 -4 9 -10 9 -5 0 -10 7 -10 15 0
19 5 19 38 -2 26 -17 26 -17 13 0 -11 14 -11 17 0 18 8 0 4 4 -8 9 -15 6 -21
15 -17 25 3 8 1 15 -6 15 -6 0 -8 -4 -5 -10 4 -6 -13 -8 -42 -5 -26 2 -64 4
-83 5 -57 1 -60 6 -49 89 5 41 13 79 17 85 5 6 14 30 21 54 14 50 58 133 114
216 35 51 42 57 48 40 8 -22 60 -292 59 -313 0 -11 -11 -12 -52 -7 -124 16
-128 15 -40 -7 51 -14 96 -28 100 -31 4 -4 9 -47 11 -94 l4 -87 12 45 c12 45
12 45 20 16 4 -16 3 -61 -3 -99 -12 -78 -33 -109 -97 -138 l-40 -19 32 0 c17
0 42 4 55 9 31 13 88 67 121 116 20 30 27 35 32 22 3 -9 7 -24 10 -34 3 -9 -5
-28 -22 -45 -28 -30 -26 -36 7 -15 17 10 22 9 30 -3 8 -12 10 -10 10 8 0 30
28 72 48 72 8 0 12 3 9 7 -4 3 2 13 14 21 26 18 40 5 15 -14 -11 -8 -14 -14
-7 -14 8 0 10 -7 5 -22 -11 -35 -56 -90 -69 -84 -6 2 -16 -4 -22 -13 -18 -29
21 -19 72 17 25 17 45 26 45 20 0 -6 -16 -40 -36 -75 -40 -72 -41 -99 -1 -30
14 24 33 50 43 58 15 12 16 11 10 -19 -5 -19 -4 -32 2 -32 14 0 49 76 62 135
6 28 22 67 35 87 14 21 31 63 40 95 14 56 14 57 10 13 -2 -25 -7 -56 -11 -69
-11 -36 10 -18 31 26 14 29 18 60 17 130 -1 54 3 95 9 99 17 10 21 -3 9 -28
-11 -22 -10 -22 4 -4 14 18 17 18 33 3 23 -20 73 -39 73 -28 0 5 -6 11 -14 14
-32 12 -51 61 -57 142 -6 99 -54 274 -91 338 -15 26 -28 49 -28 51 0 2 21 6
46 9 32 3 54 13 75 33 35 34 30 44 -7 15 -54 -42 -116 -15 -204 88 -56 67
-170 153 -252 191 -34 16 -55 29 -46 30 27 0 76 48 88 85 14 42 7 71 -8 35z
m-1106 -782 c-14 -35 -31 -82 -38 -105 -12 -41 -30 -54 -43 -33 -4 6 -1 27 5
48 15 45 94 176 98 163 2 -5 -8 -38 -22 -73z m1207 -340 c-3 -24 -10 -48 -15
-55 -5 -6 -5 -12 0 -15 18 -6 -7 -48 -28 -48 -20 0 -20 0 -1 38 10 20 24 56
30 80 15 54 21 54 14 0z m57 -73 c0 -35 -4 -45 -16 -45 -12 0 -15 6 -9 23 3
12 9 32 12 45 8 34 13 26 13 -23z m-90 -81 c0 -7 -7 -14 -15 -18 -8 -3 -15 -4
-15 -2 0 3 -3 11 -6 20 -4 11 0 14 15 13 12 -1 21 -7 21 -13z"/>
<path d="M2378 3793 c7 -3 16 -2 19 1 4 3 -2 6 -13 5 -11 0 -14 -3 -6 -6z"/>
<path d="M2280 3755 c0 -8 68 -69 104 -94 24 -16 19 -11 -51 54 -29 26 -53 44
-53 40z"/>
<path d="M2387 3729 c4 -13 8 -18 11 -10 2 7 -1 18 -6 23 -8 8 -9 4 -5 -13z"/>
<path d="M3820 3713 c-8 -3 -34 -19 -57 -34 -23 -16 -43 -29 -46 -29 -2 0 -86
-50 -188 -111 -101 -62 -226 -136 -276 -166 -51 -30 -95 -58 -98 -63 -3 -4 11
-48 31 -96 76 -190 126 -325 121 -331 -4 -3 -26 6 -51 21 -40 23 -46 33 -66
93 -24 74 -40 97 -83 120 -28 14 -28 14 -14 -9 18 -28 30 -88 18 -88 -5 0 -63
27 -129 60 -65 33 -136 66 -158 73 -27 10 -40 21 -45 38 -5 22 4 75 15 86 2 2
34 -9 70 -26 36 -16 66 -28 66 -26 0 2 -39 24 -86 49 -85 46 -130 61 -85 30
16 -12 20 -19 12 -27 -6 -6 -11 -21 -11 -33 0 -12 -4 -24 -8 -26 -5 -1 -12
-23 -15 -48 -5 -38 -5 -41 5 -20 l11 25 6 -23 c3 -12 15 -28 27 -35 12 -7 43
-29 70 -49 27 -21 97 -63 157 -93 l107 -56 0 -52 c0 -34 -7 -66 -21 -91 l-20
-38 22 -57 c13 -31 28 -65 35 -76 6 -11 22 -49 34 -85 l23 -64 -34 -28 c-19
-16 -75 -49 -126 -74 -71 -36 -107 -47 -156 -51 l-63 -5 -51 57 c-54 60 -64
89 -94 262 -11 64 -26 100 -37 89 -2 -3 -10 0 -18 7 -7 7 -44 39 -83 72 -38
33 -70 65 -70 72 -1 14 -41 38 -41 25 0 -6 -9 -12 -20 -15 -13 -3 -20 -14 -20
-28 0 -22 0 -22 -21 -3 -24 22 -111 138 -129 174 -13 24 -12 24 8 10 11 -8 40
-30 64 -48 34 -27 33 -25 -7 9 -110 96 -115 103 -105 140 15 51 13 64 -5 49
-8 -7 -12 -17 -8 -23 4 -6 1 -7 -6 -2 -7 4 -10 17 -7 28 5 19 3 18 -20 -5
l-26 -25 23 -44 c34 -67 115 -196 171 -271 27 -37 48 -73 46 -79 -8 -23 -225
303 -235 353 -8 39 -19 26 -28 -29 -5 -37 -17 -57 -59 -102 -29 -31 -76 -87
-104 -126 -143 -194 -314 -395 -336 -395 -22 0 -105 -182 -121 -265 -14 -73
-36 -457 -34 -580 1 -58 2 -55 24 85 15 96 27 131 40 119 2 -3 -4 -48 -15
-100 -50 -252 -64 -473 -35 -573 17 -60 52 -106 78 -106 29 0 28 -33 -1 -64
-16 -17 -55 -67 -87 -111 l-57 -80 6 -77 c7 -94 24 -167 78 -320 34 -99 44
-117 64 -122 29 -8 97 9 132 32 23 15 25 14 42 -8 19 -26 35 -103 25 -120 -14
-22 -25 -8 -25 33 0 57 -19 84 -48 68 -12 -6 -22 -9 -22 -6 0 3 -10 -1 -22 -9
-31 -22 -94 -20 -117 3 -21 21 -94 231 -116 336 -20 96 -20 194 2 224 12 18
13 23 2 19 -8 -2 -24 -19 -36 -38 -19 -27 -22 -42 -18 -84 26 -279 30 -294
118 -461 l53 -100 44 0 c42 0 45 -2 48 -28 2 -16 -5 -39 -18 -57 -23 -32 -21
-60 5 -60 10 0 15 10 15 29 0 22 11 39 46 70 47 41 72 53 57 28 -4 -8 -25 -29
-45 -46 -24 -21 -38 -42 -38 -57 0 -23 3 -24 61 -24 l61 0 -16 25 c-9 13 -16
42 -16 63 0 32 5 43 27 57 35 22 62 55 63 75 0 8 -20 46 -45 83 -48 71 -64 78
-119 57 -36 -13 -53 -4 -67 38 -7 21 -18 46 -25 57 -6 11 -18 54 -24 95 -7 41
-18 102 -25 135 -15 75 -6 115 45 213 22 41 40 82 40 90 0 9 7 24 17 34 9 10
11 18 5 18 -6 0 -9 6 -6 13 2 7 -14 53 -37 102 l-41 90 12 140 c12 149 37 366
43 371 1 2 15 -7 30 -19 l27 -22 -21 -215 c-18 -194 -19 -218 -5 -250 67 -156
66 -200 -14 -353 -22 -44 -40 -92 -40 -110 0 -42 47 -286 60 -312 5 -11 14
-33 20 -48 9 -27 12 -28 55 -21 70 10 88 1 134 -69 57 -88 54 -125 -14 -167
-43 -26 -45 -51 -10 -120 l25 -50 70 0 c69 0 83 7 57 28 -7 6 -26 38 -42 72
l-29 61 44 38 c44 38 45 40 44 99 -1 81 -17 116 -62 136 -34 15 -41 15 -81 1
-72 -25 -78 -22 -91 42 -6 32 -22 106 -35 165 -13 58 -29 145 -36 191 l-12 85
59 82 c33 45 65 91 73 101 10 15 11 26 4 42 -6 12 -16 38 -23 57 -6 19 -19 53
-27 75 -20 54 -27 152 -18 269 11 148 27 108 19 -48 l-7 -132 38 -104 c50
-142 51 -151 23 -186 -14 -16 -46 -59 -72 -96 l-47 -67 20 -113 c11 -62 32
-170 47 -239 l27 -127 41 19 c56 25 76 24 123 -11 48 -36 69 -94 60 -168 -5
-38 -14 -54 -46 -82 l-39 -36 20 -39 c11 -22 31 -57 45 -78 l26 -37 139 0 138
0 10 26 c16 42 11 68 -19 102 -17 17 -34 32 -39 32 -5 0 -24 15 -43 33 -19 17
-47 41 -62 52 l-27 20 15 55 c21 77 19 102 -12 146 -14 21 -34 60 -44 85 -33
86 -139 672 -155 857 l-6 77 38 -36 c22 -20 53 -44 70 -52 27 -14 32 -23 38
-67 4 -29 27 -158 52 -288 24 -131 51 -275 59 -322 8 -47 25 -132 38 -190 21
-91 27 -106 49 -115 54 -22 57 -30 52 -128 -3 -51 -9 -96 -13 -100 -12 -12 -1
-47 15 -47 7 0 24 -16 38 -36 18 -27 23 -44 19 -70 l-6 -34 65 0 65 0 -58 141
-59 140 25 44 c14 24 35 67 45 97 23 64 26 36 8 -70 l-11 -67 73 -140 c81
-155 78 -150 84 -144 3 2 -29 71 -70 152 -72 142 -74 148 -64 187 11 40 33
331 31 400 -1 43 -34 187 -60 261 -10 31 -60 137 -110 236 -50 100 -91 189
-91 200 0 10 -16 41 -35 68 -20 28 -74 109 -122 180 -154 231 -313 433 -442
560 -39 38 -71 74 -71 80 0 12 63 105 72 105 6 0 89 -118 356 -505 80 -115
184 -262 232 -325 130 -172 149 -204 182 -298 17 -48 37 -100 45 -116 9 -17
26 -70 39 -119 13 -49 45 -141 70 -205 l46 -117 -5 -100 c-3 -55 -13 -166 -23
-248 l-17 -147 57 -115 c31 -64 56 -120 56 -125 0 -6 72 -10 184 -10 l184 0 6
31 c3 17 6 46 6 64 0 32 -2 33 -107 76 -69 29 -112 53 -124 69 -39 56 -87 602
-58 676 9 25 1 46 -70 193 -44 92 -91 205 -105 252 -33 119 -45 138 -156 255
-181 190 -649 778 -709 892 -20 37 11 28 34 -10 30 -52 117 -168 288 -383 245
-310 299 -374 387 -460 112 -112 142 -159 185 -300 22 -69 67 -178 107 -259
l70 -140 -11 -55 c-16 -79 -14 -165 10 -351 30 -241 39 -298 52 -308 7 -6 52
-26 101 -46 135 -54 140 -58 132 -117 -4 -27 -9 -56 -13 -65 -5 -13 4 -15 57
-12 l62 3 24 59 c33 81 32 96 -7 96 -23 0 -49 16 -111 70 -51 44 -92 72 -114
76 -18 3 -38 12 -44 19 -14 17 -37 129 -49 245 -6 52 -17 151 -25 220 -9 69
-22 195 -30 280 -12 128 -20 167 -44 225 -51 124 -120 221 -289 408 -126 140
-198 228 -279 342 -27 39 -93 126 -147 194 -92 115 -229 308 -256 358 -9 19
-8 28 5 48 l17 26 28 -43 c16 -24 29 -48 29 -55 0 -6 4 -13 8 -15 5 -1 78
-100 162 -218 185 -258 229 -314 428 -544 85 -98 174 -207 199 -242 83 -119
186 -395 204 -549 6 -49 21 -155 34 -235 13 -80 31 -201 40 -270 17 -122 19
-127 49 -148 17 -12 63 -49 101 -82 39 -33 80 -60 91 -60 12 0 32 -8 44 -18
l22 -17 -21 -82 c-25 -96 -25 -93 -8 -93 9 0 21 33 35 92 23 102 19 124 -26
134 -43 9 -70 25 -126 74 -28 25 -66 56 -84 70 -32 25 -32 28 -57 195 -14 94
-30 196 -36 228 -5 32 -16 112 -24 178 -16 136 -42 239 -90 348 -17 42 -40 98
-50 125 -17 48 -83 151 -134 212 -113 133 -195 228 -246 285 -76 84 -124 145
-271 350 -156 217 -274 391 -274 404 1 11 39 60 43 54 2 -2 37 -56 79 -119 42
-63 115 -162 162 -220 47 -58 144 -181 215 -275 128 -168 154 -199 322 -392
82 -93 167 -212 202 -279 23 -45 54 -168 62 -244 31 -306 85 -702 106 -782 8
-33 15 -39 52 -49 31 -8 58 -28 107 -80 58 -61 70 -69 103 -69 53 0 56 -26 13
-139 -20 -51 -36 -95 -36 -97 0 -2 13 -4 29 -4 29 0 30 2 51 93 12 50 24 117
27 147 7 70 -2 78 -138 130 -57 22 -111 48 -120 58 -20 25 -82 451 -84 577 -2
65 -9 113 -28 175 -35 115 -71 263 -97 394 -11 60 -29 128 -39 151 -10 24 -56
83 -102 131 -45 49 -148 168 -228 264 -80 96 -191 227 -246 290 -55 63 -123
144 -152 180 -131 165 -193 246 -193 253 0 24 34 -12 133 -139 60 -76 161
-200 226 -274 64 -74 173 -202 241 -285 68 -82 166 -194 218 -249 51 -54 104
-120 118 -147 13 -27 36 -106 49 -176 27 -136 84 -359 109 -432 10 -26 16 -77
16 -130 0 -93 63 -558 78 -573 5 -5 49 -24 99 -42 182 -68 185 -73 149 -246
-13 -63 -27 -123 -31 -133 -6 -15 1 -17 78 -17 l85 0 11 42 c6 24 16 93 22
153 16 147 10 160 -111 238 -113 71 -146 117 -155 215 -3 37 -21 117 -39 177
-19 61 -59 241 -90 400 -30 160 -60 313 -66 341 -13 58 -81 180 -139 245 -21
24 -78 100 -126 169 -49 69 -141 182 -204 253 -302 333 -271 292 -271 353 0
30 3 54 8 54 4 0 63 -64 132 -142 69 -78 170 -192 225 -253 195 -219 375 -453
404 -525 60 -152 90 -279 156 -660 63 -363 81 -447 108 -492 14 -24 58 -64
117 -107 90 -64 96 -71 122 -134 25 -61 26 -72 17 -128 -5 -34 -16 -76 -23
-93 -7 -17 -16 -48 -20 -69 -6 -33 -5 -38 9 -35 23 4 64 133 72 223 4 47 0 96
-11 150 -16 79 -17 81 -84 143 -37 35 -91 81 -119 103 -29 22 -59 52 -67 67
-7 15 -30 117 -50 227 -20 110 -59 288 -87 395 -28 107 -66 252 -84 321 -36
139 -59 184 -193 381 -81 119 -173 224 -239 275 -18 14 -33 29 -33 33 0 4 -19
27 -42 52 -159 166 -301 334 -296 350 2 6 48 -40 102 -103 104 -122 236 -264
354 -382 40 -39 94 -103 120 -142 26 -38 69 -99 95 -135 52 -69 115 -186 128
-235 4 -16 24 -88 44 -160 54 -192 121 -467 140 -575 35 -194 55 -281 68 -301
8 -11 37 -37 64 -57 28 -20 80 -66 116 -102 61 -59 68 -70 82 -132 23 -100 19
-200 -10 -298 -30 -99 -30 -102 -9 -98 24 4 72 207 80 333 6 94 5 103 -17 140
-13 21 -47 62 -75 90 -55 54 -147 164 -164 194 -22 41 -147 667 -136 679 11
11 16 -6 41 -144 43 -232 106 -507 123 -534 27 -42 143 -178 158 -184 7 -3 33
-36 58 -73 l45 -68 -9 -101 c-5 -56 -20 -146 -34 -202 -31 -120 -32 -132 -8
-132 25 0 60 146 74 310 7 69 13 127 14 129 2 2 15 -4 29 -13 22 -15 25 -23
25 -79 0 -56 -41 -247 -69 -319 l-11 -28 154 0 153 0 7 46 c11 82 6 277 -8
317 -20 54 -52 98 -100 133 -22 16 -62 46 -88 65 -55 41 -68 61 -112 176 -19
49 -58 153 -89 233 -30 80 -98 273 -150 430 -52 157 -106 315 -120 351 -22 59
-25 81 -25 195 1 171 -16 303 -58 453 -20 68 -44 160 -54 205 -10 44 -30 126
-44 180 -25 94 -27 122 -7 100 4 -5 18 -54 31 -109 12 -55 45 -181 72 -280 65
-233 78 -315 83 -515 l4 -165 94 -275 c173 -505 194 -564 251 -710 80 -205 82
-208 161 -265 164 -117 187 -163 186 -374 0 -77 -3 -151 -7 -165 -5 -20 -2
-26 9 -26 53 0 57 371 5 503 -6 17 -36 44 -74 69 -83 53 -119 109 -178 271
-25 70 -77 205 -115 300 -37 95 -90 237 -116 317 -26 80 -65 186 -86 237 -41
97 -54 160 -69 338 -13 142 -56 412 -76 467 -18 52 -65 240 -60 245 1 2 30
-68 63 -154 66 -173 96 -313 113 -533 14 -176 26 -240 66 -331 19 -46 56 -147
81 -224 25 -77 85 -241 133 -365 48 -124 104 -268 124 -322 45 -119 78 -165
153 -216 33 -22 64 -46 70 -53 45 -55 66 -294 39 -447 -9 -50 -16 -94 -16 -97
0 -3 17 -5 39 -5 48 0 48 0 57 216 11 251 -13 309 -172 421 -93 65 -115 93
-139 173 -4 14 -27 72 -50 130 -24 58 -98 265 -164 460 -67 195 -134 391 -150
435 -28 74 -30 90 -29 215 0 74 -2 169 -6 210 -5 58 -4 71 5 57 16 -27 32
-228 25 -319 -6 -69 -3 -84 23 -150 16 -40 58 -161 94 -268 135 -403 257 -735
305 -830 9 -19 39 -51 66 -70 112 -81 131 -97 162 -143 51 -74 57 -110 50
-302 -3 -93 -8 -186 -11 -205 -4 -27 -3 -30 4 -14 5 11 14 56 21 100 18 129
28 184 50 277 18 80 19 90 5 110 -20 28 -19 46 1 21 22 -27 15 -11 -40 99 -27
54 -46 100 -44 103 5 4 63 -19 120 -47 74 -37 163 42 295 261 52 87 66 124 60
157 -7 34 21 97 61 139 15 16 43 54 62 84 31 49 35 62 34 120 0 60 -7 78 -65
200 -92 192 -80 177 -117 150 -21 -16 -50 -25 -87 -28 -48 -4 -65 0 -121 28
-56 27 -69 39 -84 74 -19 45 -33 96 -26 96 3 0 27 -22 54 -48 74 -72 110 -87
216 -87 l89 0 23 70 c12 38 22 71 20 72 -1 2 -16 -2 -32 -9 -52 -19 -154 -2
-216 37 -64 40 -101 97 -87 133 9 23 10 23 42 -19 18 -24 55 -57 82 -74 44
-27 57 -30 131 -30 62 1 81 -2 77 -12 -3 -7 -1 -13 4 -13 5 0 15 22 22 49 11
45 10 53 -8 90 -12 22 -35 56 -51 75 -34 38 -35 46 -18 126 10 52 9 61 -21
145 -17 49 -37 97 -44 106 -98 132 -160 226 -169 252 -20 59 -48 77 -48 32 0
-48 -26 -81 -83 -104 -29 -12 -60 -19 -69 -16 -23 9 -90 175 -77 191 18 22
-34 7 -124 -37 -73 -35 -85 -44 -101 -82 -12 -26 -21 -37 -24 -28 -3 10 -10 3
-21 -19 -27 -56 -42 -49 -24 12 33 117 49 137 164 196 57 30 106 57 109 60 3
3 -1 2 -9 -3 -9 -5 -18 -2 -26 8 -7 10 -41 20 -96 27 -46 6 -109 20 -139 30
-30 10 -58 16 -62 14 -5 -3 -41 -14 -81 -26 -100 -28 -245 -27 -176 1 19 8 16
9 -17 5 -25 -4 -44 -2 -48 5 -7 11 -3 12 113 36 40 8 80 20 90 26 14 8 13 9
-4 5 -53 -13 -157 -36 -163 -36 -4 1 7 7 23 15 30 13 29 13 -16 8 -28 -3 -49
-1 -53 6 -7 11 8 16 80 25 59 8 162 43 210 71 38 22 54 25 142 25 l100 0 -66
63 c-37 34 -69 65 -72 68 -3 3 -27 21 -55 39 -56 38 -89 73 -73 79 5 2 -5 18
-22 36 -45 47 -21 52 26 6 21 -21 82 -68 134 -103 52 -35 109 -77 125 -92 37
-34 85 -60 85 -46 0 5 -4 10 -9 10 -6 0 -43 27 -84 60 -69 55 -76 65 -111 147
-27 66 -49 100 -85 136 -50 48 -54 50 -81 40z m-1747 -743 c-3 -11 6 -40 21
-66 19 -33 21 -43 9 -31 -10 8 -27 32 -37 51 -15 29 -17 38 -6 51 16 20 19 19
13 -5z m2235 -305 c-2 -1 -64 -34 -138 -72 -138 -72 -364 -190 -479 -249 -51
-27 -67 -32 -83 -23 -11 6 -16 14 -12 19 5 4 149 80 319 169 171 89 321 168
335 176 22 12 27 12 43 -2 9 -9 16 -17 15 -18z m-1702 -20 c3 -8 3 -19 -1 -25
-10 -16 -45 7 -39 25 8 19 33 19 40 0z m1735 -59 c9 -36 17 -47 48 -60 32 -15
135 -110 155 -144 4 -7 2 -20 -5 -28 -10 -12 -9 -21 4 -44 17 -28 17 -29 -4
-43 -13 -10 -37 -63 -69 -153 -26 -77 -56 -157 -65 -179 l-18 -40 -14 41 c-7
23 -25 52 -39 65 -22 21 -24 21 -18 4 4 -11 10 -24 14 -30 4 -5 10 -23 14 -39
l7 -28 -38 23 c-21 12 -46 29 -57 38 -25 22 -106 127 -106 139 0 9 -43 42 -55
42 -3 0 28 -44 69 -97 55 -73 89 -107 130 -131 59 -36 87 -62 67 -62 -6 0 -41
19 -78 42 -50 32 -79 61 -124 122 -81 112 -90 124 -90 133 0 5 -8 17 -19 28
-10 11 -45 65 -79 120 -48 78 -58 102 -49 111 7 6 85 49 173 94 88 46 174 92
190 102 17 10 33 18 37 18 4 0 13 -20 19 -44z m-447 -224 c-7 -45 -2 -57 100
-222 39 -63 80 -132 91 -154 23 -46 89 -101 130 -110 39 -8 99 -88 108 -141 9
-53 28 -69 85 -71 60 -3 60 -3 42 -14 -22 -14 -77 -12 -109 5 -28 14 -41 39
-41 81 0 46 -55 124 -87 124 -32 0 -115 70 -139 118 -11 20 -56 97 -101 171
-46 74 -83 139 -83 145 0 19 -20 -18 -20 -37 0 -29 163 -297 217 -355 33 -37
59 -56 82 -61 33 -6 81 -54 69 -67 -3 -3 -14 8 -24 25 -14 23 -26 31 -47 31
-40 0 -117 76 -166 164 -22 39 -62 106 -89 148 l-49 77 -26 -85 -26 -86 51
-82 c98 -156 105 -164 198 -208 47 -23 91 -41 98 -41 6 0 12 -4 12 -8 0 -21
-35 -12 -120 30 l-95 46 -72 108 c-94 141 -102 167 -78 258 9 38 16 72 13 74
-3 3 -10 -20 -17 -51 -7 -30 -15 -53 -19 -50 -14 15 -51 154 -47 177 7 33 114
90 116 61 0 -10 4 -7 11 11 5 15 16 27 24 27 11 0 13 -9 8 -38z m-2148 -288
c104 -126 305 -402 339 -464 18 -33 -103 92 -185 192 -78 94 -127 164 -223
315 -34 53 -96 95 -145 99 -40 2 -44 14 -20 61 10 21 14 19 94 -56 46 -43 109
-109 140 -147z m1958 150 c27 -260 185 -805 349 -1202 l79 -192 89 -94 c49
-52 89 -97 89 -102 0 -4 8 -17 17 -28 9 -12 -27 22 -80 74 -54 52 -109 112
-123 132 -99 142 -357 916 -418 1255 -35 191 -38 223 -22 223 9 0 15 -21 20
-66z m-60 14 c3 -18 15 -89 26 -158 50 -297 198 -777 350 -1133 l62 -149 112
-117 c94 -98 117 -128 139 -184 27 -68 34 -107 19 -107 -5 0 -15 19 -22 43
-25 86 -55 131 -149 226 -60 60 -109 121 -128 157 -84 160 -241 596 -328 915
-69 250 -120 539 -96 539 5 0 12 -15 15 -32z m949 -268 c49 -24 77 -31 135
-32 78 -3 88 -12 52 -48 -41 -41 -151 -22 -229 40 -55 44 -81 84 -81 126 0 27
1 27 31 -14 20 -28 51 -51 92 -72z m-1547 61 c-9 -14 -33 -14 -41 -1 -4 6 -1
18 6 26 11 13 14 13 27 0 8 -8 11 -19 8 -25z m1378 -145 c10 -42 53 -82 116
-110 62 -28 126 -32 189 -11 32 11 25 -11 -12 -39 -39 -29 -156 -29 -212 0
-46 24 -93 92 -102 147 -6 41 11 52 21 13z m-1119 -161 c0 -22 -31 -33 -48
-16 -7 7 -6 15 3 26 17 21 45 15 45 -10z m1449 -132 c36 -110 55 -189 56 -229
0 -43 -96 -210 -130 -224 -56 -24 -73 -48 -81 -112 -9 -73 -99 -268 -124 -268
-9 0 -38 -11 -65 -25 -27 -14 -51 -21 -54 -16 -6 9 84 61 106 61 20 0 108 187
114 242 9 79 13 86 65 119 40 26 61 51 100 118 l50 85 -11 65 c-6 35 -24 106
-41 156 -31 97 -34 115 -21 115 4 0 21 -39 36 -87z m-37 -21 c17 -54 37 -125
44 -159 l12 -60 -47 -85 c-35 -62 -57 -89 -83 -103 -57 -31 -83 -70 -83 -123
0 -35 -12 -71 -47 -144 -25 -54 -52 -98 -58 -98 -6 0 -38 -16 -70 -35 -52 -32
-62 -35 -86 -24 -16 6 -35 27 -45 47 -9 20 -26 43 -37 52 -11 9 -21 26 -22 37
0 11 -9 32 -18 46 -23 36 -22 39 16 33 l32 -6 -36 15 c-35 15 -48 34 -85 122
l-14 31 36 -10 c31 -8 39 -7 58 11 12 12 29 21 38 21 15 0 36 -52 41 -105 2
-16 9 -40 15 -52 l12 -22 43 25 c63 35 287 266 287 296 0 12 -7 70 -15 128
-20 145 -19 200 4 228 34 40 41 28 41 -75 0 -54 5 -116 10 -138 5 -22 10 -64
11 -93 2 -29 6 -49 10 -45 4 5 3 37 -2 73 -13 94 -23 276 -16 294 12 32 24 14
54 -82z m-117 79 c0 -5 -7 -14 -15 -21 -19 -16 -19 -72 0 -210 8 -58 15 -116
15 -130 0 -45 -254 -300 -299 -300 -21 0 -11 16 22 35 40 24 122 100 198 187
l59 66 -16 129 c-20 161 -20 210 2 234 18 20 34 25 34 10z m-91 -48 c-23 -45
-24 -94 -4 -242 l15 -113 -51 -59 c-98 -113 -189 -185 -189 -149 0 6 4 10 9
10 14 0 103 84 159 148 l49 57 -18 130 c-13 96 -15 141 -8 174 12 55 26 81 43
81 11 0 10 -8 -5 -37z m381 -81 c11 -40 20 -84 19 -99 0 -23 -47 142 -49 171
-1 24 12 -8 30 -72z m-792 -154 c49 -51 66 -75 71 -105 5 -30 11 -37 26 -35
16 3 17 2 6 -12 -27 -33 -51 -13 -51 41 0 18 -21 47 -69 97 -74 76 -121 140
-121 163 0 8 16 -7 36 -34 20 -26 66 -78 102 -115z m-1769 -225 c50 -105 81
-187 102 -269 l31 -119 -14 -135 c-7 -74 -14 -124 -16 -110 -2 14 -9 31 -15
38 -7 9 -10 62 -8 145 3 149 14 109 -118 406 -34 77 -52 133 -57 175 -5 56 -5
59 9 41 8 -11 47 -88 86 -172z m1761 73 c0 -28 33 -76 52 -76 5 0 19 11 31 25
20 24 24 25 42 11 20 -14 19 -15 -7 -21 -15 -4 -29 -13 -32 -21 -17 -44 -106
12 -106 66 0 18 -9 43 -20 57 -30 39 -24 50 10 18 20 -19 30 -38 30 -59z
m-1894 -57 c8 -57 29 -167 48 -244 19 -77 37 -158 41 -180 9 -53 70 -183 100
-215 28 -29 42 -75 26 -84 -7 -5 -11 2 -11 17 0 14 -15 43 -34 66 -35 41 -96
175 -96 209 0 10 -18 90 -39 178 -37 150 -61 284 -61 341 0 52 11 13 26 -88z
m1298 25 c4 -9 1 -23 -5 -31 -11 -12 -14 -12 -27 1 -17 17 -10 46 12 46 7 0
17 -7 20 -16z m171 -455 c5 -14 2 -25 -6 -30 -21 -13 -34 -5 -37 24 -3 21 1
27 17 27 11 0 22 -9 26 -21z m315 -403 c0 -14 -4 -28 -10 -31 -6 -4 -10 7 -10
24 0 17 5 31 10 31 6 0 10 -11 10 -24z"/>
<path d="M3836 2314 c-4 -14 -5 -28 -3 -31 3 -2 8 8 11 23 4 14 5 28 3 31 -3
2 -8 -8 -11 -23z"/>
<path d="M3821 2254 c0 -11 3 -14 6 -6 3 7 2 16 -1 19 -3 4 -6 -2 -5 -13z"/>
<path d="M4540 1155 c-7 -9 -11 -17 -9 -20 3 -2 10 5 17 15 14 24 10 26 -8 5z"/>
<path d="M4511 1089 c-6 -18 -9 -34 -7 -36 2 -2 9 10 15 28 6 18 9 34 7 36 -2
2 -9 -10 -15 -28z"/>
<path d="M4482 1015 c-17 -37 -14 -45 4 -12 9 16 14 31 11 33 -2 2 -9 -7 -15
-21z"/>
<path d="M4237 983 c-4 -3 -7 -11 -7 -17 0 -6 5 -5 12 2 6 6 9 14 7 17 -3 3
-9 2 -12 -2z"/>
<path d="M4300 910 c0 -5 6 -7 14 -4 8 3 17 1 21 -5 3 -6 23 -10 43 -10 34 2
34 2 7 6 -16 3 -34 9 -39 14 -13 12 -46 12 -46 -1z"/>
<path d="M2226 3488 c-7 -84 -22 -194 -33 -236 -4 -17 -2 -21 11 -16 8 3 15 9
14 12 -1 4 3 45 10 92 14 101 20 230 11 230 -3 0 -10 -37 -13 -82z"/>
<path d="M3151 3503 c-40 -47 -42 -48 -123 -60 l-83 -12 78 4 c76 5 91 -1 63
-24 -15 -12 -28 -51 -18 -50 7 0 133 189 127 189 -2 0 -22 -21 -44 -47z"/>
<path d="M2660 3366 c0 -2 8 -10 18 -17 15 -13 16 -12 3 4 -13 16 -21 21 -21
13z"/>
<path d="M3023 3289 c-17 -27 -27 -47 -22 -43 12 7 62 85 57 89 -2 2 -17 -19
-35 -46z"/>
<path d="M2731 3278 c-4 -13 -11 -41 -14 -63 -6 -40 -6 -40 5 -7 6 17 15 32
20 32 5 0 6 5 3 10 -4 6 -2 17 5 25 7 9 8 15 0 20 -5 3 -14 -4 -19 -17z"/>
<path d="M2955 3230 c-3 -6 1 -7 9 -4 18 7 21 14 7 14 -6 0 -13 -4 -16 -10z"/>
<path d="M4230 3220 c6 -11 12 -20 14 -20 2 0 2 9 -1 20 -3 11 -9 20 -15 20
-5 0 -4 -9 2 -20z"/>
<path d="M2818 3203 c7 -3 16 -2 19 1 4 3 -2 6 -13 5 -11 0 -14 -3 -6 -6z"/>
<path d="M3885 3196 c-18 -13 -18 -14 8 -9 15 3 30 9 33 14 8 14 -20 10 -41
-5z"/>
<path d="M3940 3201 c0 -9 130 -34 138 -26 3 3 -1 5 -9 5 -8 1 -40 7 -71 14
-32 8 -58 11 -58 7z"/>
<path d="M2865 3190 c27 -12 43 -12 25 0 -8 5 -22 9 -30 9 -10 0 -8 -3 5 -9z"/>
<path d="M4253 3178 c4 -11 0 -18 -11 -21 -9 -2 2 -7 25 -11 27 -5 40 -12 37
-20 -3 -7 2 -19 11 -26 11 -9 15 -9 15 -1 0 21 -20 51 -35 51 -8 0 -21 10 -31
23 -10 13 -14 16 -11 5z"/>
<path d="M3820 3170 c-18 -12 -2 -12 25 0 13 6 15 9 5 9 -8 0 -22 -4 -30 -9z"/>
<path d="M2948 3163 c7 -3 16 -2 19 1 4 3 -2 6 -13 5 -11 0 -14 -3 -6 -6z"/>
<path d="M4130 3166 c0 -2 18 -6 40 -8 22 -2 40 0 40 4 0 5 -18 8 -40 8 -22 0
-40 -2 -40 -4z"/>
<path d="M2710 3070 c-6 -11 -8 -20 -6 -20 3 0 10 9 16 20 6 11 8 20 6 20 -3
0 -10 -9 -16 -20z"/>
<path d="M4358 3043 c7 -3 16 -2 19 1 4 3 -2 6 -13 5 -11 0 -14 -3 -6 -6z"/>
<path d="M1433 1505 c0 -27 2 -38 4 -22 2 15 2 37 0 50 -2 12 -4 0 -4 -28z"/>
<path d="M1415 1152 c2 -15 1 -40 -3 -56 -6 -23 -2 -41 20 -83 l27 -53 -29
-34 c-19 -21 -30 -44 -30 -62 l1 -29 27 32 c71 84 105 137 91 142 -31 10 -68
61 -84 115 -17 59 -29 75 -20 28z"/>
<path d="M1210 515 c-27 -62 -34 -93 -34 -137 1 -69 6 -76 128 -205 65 -68
101 -114 107 -138 12 -42 39 -48 39 -7 0 27 -35 81 -111 173 -56 68 -81 145
-88 279 l-6 115 -35 -80z"/>
</g>
</svg>
